<svg xmlns="http://www.w3.org/2000/svg" viewBox="0 0 1598.656 280.157">
  <g fill="#fff">
    <path d="M776.073 88.398c-50.851-.526-92.743 29.246-91.69 68.504-1.053 39.258 40.84 69.032 91.69 68.504 51.642 0 92.217-28.983 92.217-68.504s-40.575-68.504-92.217-68.504Zm2.634 108.29h-4.742c-32.671 0-53.486-16.073-53.486-39.786s20.815-39.785 53.486-39.785h4.742c32.935 0 53.486 16.072 53.486 39.785s-20.551 39.786-53.486 39.786ZM1177.881 88.398c-46.899-.526-88.792 25.821-88.002 66.396 0 44.528 35.043 70.612 88.002 70.612 50.061 0 74.564-20.288 79.834-44.264h-37.941c-5.006 8.694-17.653 15.545-39.521 15.545h-4.742c-24.24 0-41.629-10.54-47.69-28.193h131.212v-12.91c0-38.731-30.3-67.187-81.151-67.187Zm-49.27 53.223c6.323-15.545 22.396-24.504 46.899-24.504h4.742c23.713 0 40.575 9.748 41.629 24.504h-93.271ZM1367.585 118.434h4.742c21.869 0 37.151 6.06 41.63 18.707h37.413c-4.216-28.456-34.253-48.744-81.678-48.744-54.013 0-87.475 29.509-87.475 68.504 0 39.521 31.88 68.504 87.475 68.504 51.378 0 77.199-22.396 81.414-48.743h-37.412c-2.635 11.066-19.761 18.706-41.367 18.706h-4.742c-32.144 0-49.27-17.652-49.27-38.467s17.127-38.467 49.27-38.467ZM1547.014 193.262c-8.168 0-10.539-2.372-10.539-10.54v-62.971h54.276V91.033h-54.276V48.35h-35.57v42.683h-38.994v28.718h38.994v58.098l44.92 44.921 52.83.001v-29.509h-51.642ZM1015.045 90.032l-116.854-.001v132.741h35.57V119.54h80.097c8.168 0 10.539 2.372 10.539 10.54v92.692h35.57v-87.818l-44.921-44.921ZM594.005 143.728l83.259-52.695h-58.229l-73.246 47.952V73.238L510.89 38.337h-.671v184.434h35.57v-48.479l18.706-11.857 62.181 60.336h54.013l-86.684-79.043z"/>
    </g>
  <g fill="#ffff3c">
    <path d="M41.108 40.022h98.971V0H40.023L0 40.022v200.113l40.023 39.884h100.056v-39.884H41.108V40.022zM340.005 40.023l-.047.025v-.025h.047L300.075 0v.817L299.982 0h-99.916l-.017.111-59.97 39.912v40.022l59.847-40.022h100.103v23.508l-119.476 77.675 119.595 78.918h-.119v20.011h-99.917v-.147l-60.033-39.953.186 39.953 59.801 39.992v.177h99.963l.028-.174 39.901-39.848V200.95l-92.683-60.302 92.73-59.01V40.023z"/>
  </g>
</svg>